<svg width="30" height="30" viewBox="0 0 30 30" fill="none" xmlns="http://www.w3.org/2000/svg">
<path d="M9.375 25C10.4105 25 11.25 24.1605 11.25 23.125C11.25 22.0895 10.4105 21.25 9.375 21.25C8.33947 21.25 7.5 22.0895 7.5 23.125C7.5 24.1605 8.33947 25 9.375 25Z" fill="#333333"/>
<path d="M20.625 25C21.6605 25 22.5 24.1605 22.5 23.125C22.5 22.0895 21.6605 21.25 20.625 21.25C19.5895 21.25 18.75 22.0895 18.75 23.125C18.75 24.1605 19.5895 25 20.625 25Z" fill="#333333"/>
<path d="M3.75 6.25H6.25L7 10M7 10L8.75 18.75H21.25L23.75 10H7Z" stroke="#333333" stroke-width="2" stroke-linecap="round" stroke-linejoin="round"/>
</svg>
